<!DOCTYPE svg PUBLIC "-//W3C//DTD SVG 1.1//EN" "http://www.w3.org/Graphics/SVG/1.1/DTD/svg11.dtd">
<!-- Uploaded to: SVG Repo, www.svgrepo.com, Transformed by: SVG Repo Mixer Tools -->
<svg fill="#ffffff" height="800px" width="800px" version="1.1" id="Layer_1" xmlns="http://www.w3.org/2000/svg" xmlns:xlink="http://www.w3.org/1999/xlink" viewBox="0 0 512 512" xml:space="preserve" stroke="#ffffff">
<g id="SVGRepo_bgCarrier" stroke-width="0"/>
<g id="SVGRepo_tracerCarrier" stroke-linecap="round" stroke-linejoin="round"/>
<g id="SVGRepo_iconCarrier"> <g> <g> <g> <path d="M85.253,288.006c11.782,0.05,21.374-9.461,21.424-21.242l0.725-170.667c0.05-11.782-9.461-21.374-21.242-21.424 c-11.782-0.05-21.374,9.461-21.424,21.242l-0.725,170.667C63.961,278.364,73.471,287.956,85.253,288.006z"/> <path d="M426.667,394.673c11.782,0,21.333-9.551,21.333-21.333V96.006c0-11.782-9.551-21.333-21.333-21.333 s-21.333,9.551-21.333,21.333V373.34C405.333,385.122,414.885,394.673,426.667,394.673z"/> <path d="M84.971,394.67c11.78,0.2,21.493-9.187,21.693-20.968l0.725-42.667c0.2-11.78-9.187-21.493-20.968-21.693 c-11.78-0.2-21.493,9.187-21.693,20.968l-0.725,42.667C63.803,384.758,73.19,394.47,84.971,394.67z"/> <path d="M490.667,10.673H21.333C9.551,10.673,0,20.224,0,32.006v426.667c0,11.782,9.551,21.333,21.333,21.333h375.183 l15.081,15.075c8.333,8.33,21.84,8.327,30.17-0.006c4.16-4.162,6.241-9.615,6.245-15.069h42.655 c11.782,0,21.333-9.551,21.333-21.333V32.006C512,20.224,502.449,10.673,490.667,10.673z M469.333,437.34h-55.149l-63.373-63.348 C371.433,351.269,384,321.103,384,288.006c0-37.9-16.484-71.951-42.667-95.39v-96.61c0-11.782-9.551-21.333-21.333-21.333 s-21.333,9.551-21.333,21.333v71.296c-6.862-2.426-13.991-4.283-21.333-5.516v-65.78c0-11.782-9.551-21.333-21.333-21.333 s-21.333,9.551-21.333,21.333v65.78c-24.354,4.088-46.374,15.051-64,30.829v-96.61c0-11.782-9.551-21.333-21.333-21.333 c-11.782,0-21.333,9.551-21.333,21.333v192c0,70.683,57.317,128,128,128c22.095,0,42.884-5.601,61.025-15.46l36.808,36.793 H42.667v-384h426.667V437.34z M256,202.673c47.119,0,85.333,38.214,85.333,85.333S303.119,373.34,256,373.34 s-85.333-38.214-85.333-85.333S208.881,202.673,256,202.673z"/> </g> </g> </g> </g>
</svg>