<?xml version="1.0" standalone="no"?>
<!DOCTYPE svg PUBLIC "-//W3C//DTD SVG 20010904//EN"
 "http://www.w3.org/TR/2001/REC-SVG-20010904/DTD/svg10.dtd">
<svg version="1.0" xmlns="http://www.w3.org/2000/svg"
 width="1024.000000pt" height="744.000000pt" viewBox="0 0 1024.000000 744.000000"
 preserveAspectRatio="xMidYMid meet">

<g transform="translate(0.000000,744.000000) scale(0.100000,-0.100000)"
fill="#000000" stroke="none">
<path d="M589 6302 c-39 -20 -62 -41 -84 -77 l-30 -48 -3 -1856 c-2 -2072 -7
-1926 67 -2000 76 -76 -58 -71 1768 -71 1600 0 1636 0 1679 19 52 24 90 61
115 116 18 38 19 114 19 1896 0 1646 -2 1861 -15 1900 -19 52 -55 93 -110 122
l-40 22 -1656 3 -1655 3 -55 -29z m3344 -169 c4 -2 7 -547 7 -1210 0 -1144 -1
-1205 -17 -1198 -10 4 -92 29 -183 56 -178 53 -180 55 -247 152 -24 35 -49 55
-100 80 -80 41 -937 309 -1004 315 -31 2 -57 -2 -79 -13 -103 -53 -502 -299
-507 -313 -8 -20 0 -34 234 -400 107 -167 193 -305 191 -307 -2 -2 -30 -17
-63 -33 -82 -42 -144 -55 -223 -50 -56 4 -85 14 -177 61 -132 67 -169 76 -300
77 -123 0 -150 -7 -300 -78 -118 -56 -121 -57 -210 -57 -88 0 -93 2 -197 52
l-108 52 0 1410 c0 1118 3 1410 13 1415 14 6 3258 -4 3270 -11z m-2253 -3015
c128 -69 177 -83 300 -83 121 0 146 7 289 78 91 45 114 52 177 55 98 5 157 -9
277 -68 200 -97 338 -92 552 19 70 37 91 43 165 48 100 7 163 -8 274 -64 75
-38 153 -63 199 -63 l27 0 0 -116 0 -116 -47 7 c-27 4 -82 24 -123 44 -131 66
-165 73 -313 69 l-132 -3 -120 -60 -120 -60 -105 0 -105 0 -123 58 c-109 52
-134 60 -210 67 -141 13 -208 -1 -354 -71 l-128 -61 -97 4 c-95 4 -102 6 -221
62 -109 51 -134 59 -210 66 -132 12 -198 -1 -337 -68 l-120 -57 -106 0 -106 0
-107 53 -106 54 0 104 c0 57 2 104 5 104 3 0 27 -11 53 -24 92 -46 152 -60
257 -60 115 -1 156 11 310 86 l100 49 110 -3 c109 -3 111 -4 195 -50z m920
-380 c19 -6 69 -28 111 -49 121 -60 175 -72 304 -67 l112 4 119 60 119 59 120
0 120 0 111 -56 c77 -39 129 -59 168 -63 l56 -7 0 -78 c0 -62 -4 -81 -17 -92
-16 -12 -248 -14 -1636 -14 -1427 0 -1619 2 -1627 15 -11 18 -14 260 -2 260 4
0 32 -13 62 -29 86 -45 153 -61 260 -61 111 0 159 13 288 81 l84 44 116 0 117
0 125 -60 125 -60 141 0 141 0 117 58 c65 33 138 63 164 67 54 10 151 4 202
-12z"/>
<path d="M2815 5886 c-67 -21 -159 -72 -290 -161 -135 -91 -162 -111 -393
-283 l-153 -114 -77 17 c-95 21 -639 159 -707 180 -85 25 -107 21 -174 -35
-34 -28 -61 -55 -61 -60 0 -15 73 -61 351 -220 145 -83 268 -155 272 -159 4
-4 -61 -63 -144 -131 l-152 -123 -126 33 c-235 60 -207 58 -247 19 -48 -46
-58 -67 -44 -84 7 -8 68 -49 136 -92 138 -85 129 -69 79 -147 -9 -13 -12 -31
-9 -41 6 -15 16 -17 74 -11 l68 6 6 -78 c18 -212 18 -211 36 -217 21 -7 105
28 112 47 3 7 16 74 28 148 13 74 28 140 34 147 6 6 101 57 210 114 l199 102
-6 -59 c-16 -161 -29 -384 -23 -399 5 -13 14 -16 39 -12 33 5 177 82 189 100
3 6 59 160 124 344 l117 334 66 46 c328 231 584 417 639 463 86 72 136 162
129 230 -4 35 -13 51 -41 77 -35 32 -37 33 -128 32 -51 0 -111 -6 -133 -13z"/>
<path d="M2970 4881 l0 -109 157 -53 c131 -45 160 -58 170 -79 9 -18 13 -94
13 -267 0 -196 3 -243 13 -243 25 0 137 -61 168 -92 16 -17 45 -54 64 -83 26
-41 42 -56 77 -68 23 -8 51 -18 61 -22 16 -7 17 10 17 277 0 212 -3 289 -13
301 -6 10 -49 27 -95 40 l-83 22 -2 228 c-2 213 -3 230 -21 243 -16 11 -70 14
-273 14 l-253 0 0 -109z"/>
<path d="M2527 4773 c-4 -3 -7 -95 -7 -204 l0 -198 103 -31 c231 -71 525 -163
562 -176 22 -7 43 -14 48 -14 4 0 6 104 5 232 l-3 232 -35 13 c-19 6 -140 44
-269 83 -208 62 -243 70 -316 70 -45 0 -85 -3 -88 -7z"/>
<path d="M8342 5824 c-63 -17 -82 -26 -143 -70 -85 -62 -139 -162 -160 -296
-13 -85 8 -206 49 -283 38 -70 163 -192 327 -317 233 -177 257 -208 257 -329
1 -86 -22 -136 -77 -166 -75 -42 -171 -24 -221 43 -27 34 -54 119 -54 167 l0
28 -142 -7 c-79 -3 -146 -9 -150 -11 -25 -14 10 -190 54 -277 75 -148 191
-213 403 -223 99 -5 118 -2 187 20 225 72 328 231 316 485 -4 89 -9 108 -40
174 -51 104 -117 171 -312 317 -248 185 -297 248 -281 362 13 94 69 144 161
143 88 0 120 -35 154 -167 15 -58 22 -72 37 -70 72 6 256 49 260 61 10 24 -15
140 -41 197 -49 107 -161 198 -277 224 -64 15 -245 12 -307 -5z"/>
<path d="M5250 5128 c0 -660 -1 -684 -20 -715 -26 -43 -68 -63 -133 -63 -93 0
-124 40 -129 170 l-3 75 -149 3 -149 3 6 -98 c9 -150 56 -258 147 -336 78 -66
134 -82 295 -82 138 0 141 0 212 34 80 37 156 108 192 179 50 99 51 108 51
834 l0 678 -160 0 -160 0 0 -682z"/>
<path d="M6095 5788 c-6 -31 -102 -487 -165 -788 -29 -135 -83 -388 -122 -563
-38 -174 -66 -322 -63 -327 4 -6 69 -10 159 -10 l152 0 30 168 29 167 182 3
181 2 12 -72 c7 -40 20 -116 29 -168 l17 -95 159 -3 c87 -1 162 1 167 6 5 5
-6 79 -27 173 -71 323 -227 1058 -271 1274 -25 121 -47 228 -50 238 -5 15 -24
17 -209 17 -204 0 -205 0 -210 -22z m290 -841 c25 -126 45 -233 45 -238 0 -5
-57 -9 -130 -9 -71 0 -130 4 -130 9 0 4 18 100 40 212 22 112 49 258 61 324
11 66 23 127 26 135 3 8 14 -34 25 -95 10 -60 39 -213 63 -338z"/>
<path d="M7042 4958 l3 -853 405 0 405 0 3 143 3 142 -253 0 -253 0 3 215 3
215 199 0 200 0 0 135 0 135 -200 2 c-110 2 -200 6 -200 11 0 4 0 101 0 217
l0 210 248 2 247 3 3 138 3 137 -411 0 -410 0 2 -852z"/>
<path d="M8204 3791 c-159 -26 -248 -91 -314 -234 -56 -119 -62 -184 -57 -621
4 -421 7 -444 63 -563 37 -77 126 -155 211 -184 87 -31 255 -33 347 -5 118 35
208 114 260 226 26 55 26 56 26 338 l0 282 -225 0 -225 0 0 -125 0 -125 85 0
85 0 0 -113 c0 -141 -19 -189 -90 -225 -82 -42 -164 -17 -205 64 -19 37 -20
59 -20 479 0 405 1 443 18 473 26 47 72 72 132 72 100 0 137 -51 152 -212 l6
-68 143 0 c78 0 145 3 147 8 9 13 -12 191 -28 247 -36 123 -145 236 -259 269
-65 19 -186 27 -252 17z"/>
<path d="M4867 3771 c-150 -49 -246 -166 -283 -341 -22 -108 -16 -878 8 -957
40 -133 105 -216 205 -264 80 -38 242 -57 333 -38 217 44 347 226 338 474 l-3
80 -147 3 -148 3 0 -78 c0 -96 -13 -145 -49 -185 -24 -27 -36 -32 -87 -35 -76
-5 -103 9 -134 72 l-25 50 0 410 c0 427 4 472 44 521 40 50 130 63 178 28 49
-37 65 -77 71 -175 l5 -89 101 -2 c55 -1 121 -2 146 -3 l45 0 3 66 c4 82 -18
189 -53 262 -34 73 -126 158 -202 188 -82 32 -263 37 -346 10z"/>
<path d="M9239 3772 c-104 -35 -191 -111 -235 -207 -55 -119 -58 -149 -58
-575 -1 -261 3 -415 11 -455 49 -254 191 -370 453 -370 90 0 116 4 180 28 135
49 205 131 252 292 22 78 23 92 23 485 0 447 -3 475 -61 596 -42 88 -118 163
-202 195 -80 32 -281 38 -363 11z m249 -269 c15 -10 38 -41 52 -69 l25 -49 0
-400 c0 -220 -4 -417 -8 -438 -24 -114 -165 -162 -252 -86 -57 50 -60 78 -60
529 l0 406 25 48 c32 63 77 89 143 83 27 -2 61 -13 75 -24z"/>
<path d="M5891 3698 c-7 -35 -62 -295 -123 -578 -60 -283 -123 -576 -138 -650
-16 -74 -33 -155 -39 -180 -6 -25 -11 -57 -11 -72 l0 -28 145 0 c80 0 145 4
145 9 0 10 38 237 45 269 5 22 7 22 173 22 l168 0 29 -150 29 -150 148 0 c122
0 148 2 148 14 0 8 -32 165 -70 348 -39 183 -109 518 -156 743 -47 226 -87
422 -91 438 l-5 27 -193 0 -192 0 -12 -62z m213 -386 c4 -31 29 -172 56 -312
28 -140 50 -258 50 -262 0 -5 -54 -8 -120 -8 -82 0 -120 4 -120 11 0 6 25 138
55 292 30 154 55 293 55 308 0 51 17 31 24 -29z"/>
<path d="M6770 2975 l0 -785 150 0 150 0 0 300 0 300 54 0 55 0 98 -297 99
-298 157 -3 c87 -1 157 1 157 6 0 10 -165 491 -200 585 l-22 59 56 50 c70 62
93 106 117 222 45 218 9 418 -94 524 -98 102 -183 122 -524 122 l-253 0 0
-785z m486 519 c73 -35 106 -104 106 -224 1 -85 -16 -142 -52 -183 -35 -41
-86 -57 -174 -57 l-66 0 0 240 0 240 76 0 c49 0 88 -6 110 -16z"/>
<path d="M5683 1584 c-60 -22 -128 -86 -160 -152 -35 -73 -45 -217 -19 -305
63 -217 349 -284 499 -118 20 23 37 45 37 49 0 4 -25 20 -56 35 l-56 28 -38
-35 c-144 -130 -304 40 -248 261 13 55 70 117 115 126 46 9 104 -11 140 -49
l32 -34 55 27 c31 15 56 31 56 35 0 18 -86 101 -125 120 -53 28 -173 34 -232
12z"/>
<path d="M6890 1591 c-47 -15 -85 -39 -126 -83 -53 -54 -72 -93 -89 -176 -36
-171 50 -348 192 -396 74 -25 184 -21 248 9 62 30 118 88 149 154 17 38 21 65
21 156 0 100 -2 115 -28 167 -36 74 -112 143 -180 163 -53 16 -145 19 -187 6z
m171 -137 c51 -26 81 -85 87 -167 6 -95 -10 -152 -57 -198 -83 -83 -212 -55
-262 56 -21 46 -25 148 -8 206 16 51 63 107 102 118 39 12 99 6 138 -15z"/>
<path d="M570 1260 l0 -330 70 0 70 0 0 330 0 330 -70 0 -70 0 0 -330z"/>
<path d="M990 1260 l0 -330 65 0 65 0 2 211 3 212 45 -73 c25 -40 84 -134 131
-209 l85 -136 67 -3 67 -3 0 331 0 330 -65 0 -65 0 -2 -205 -3 -205 -129 205
-129 205 -68 0 -69 0 0 -330z"/>
<path d="M1760 1525 l0 -65 90 0 90 0 0 -265 0 -265 70 0 70 0 0 265 0 265 90
0 90 0 0 65 0 65 -250 0 -250 0 0 -65z"/>
<path d="M2490 1260 l0 -330 225 0 225 0 0 60 0 60 -160 0 -160 0 0 75 0 75
134 0 133 0 -1 60 -1 60 -132 0 -133 0 0 75 0 75 155 0 155 0 0 60 0 60 -220
0 -220 0 0 -330z"/>
<path d="M3190 1261 l0 -331 70 0 70 0 0 110 0 110 45 0 44 0 42 -72 c23 -40
52 -90 65 -110 l24 -38 80 0 c44 0 80 3 80 7 0 3 -31 55 -70 114 -38 60 -70
112 -70 116 1 5 15 17 33 28 47 30 77 96 77 172 0 74 -16 117 -56 155 -56 52
-95 62 -271 66 l-163 4 0 -331z m326 176 c18 -21 24 -40 24 -73 0 -77 -52
-109 -164 -102 l-50 3 -3 104 -3 103 86 -3 c79 -4 87 -6 110 -32z"/>
<path d="M3940 1260 l0 -330 65 0 65 0 2 208 3 207 128 -207 129 -208 69 0 69
0 0 330 0 330 -65 0 -65 0 0 -205 c0 -113 -3 -205 -7 -205 -5 1 -48 66 -98
145 -49 80 -107 172 -128 205 l-37 60 -65 0 -65 0 0 -330z"/>
<path d="M4920 1566 c-5 -13 -57 -158 -115 -322 -59 -165 -109 -302 -112 -306
-2 -5 29 -8 69 -8 l74 0 23 70 22 71 121 -3 121 -3 25 -73 24 -72 74 1 c41 1
74 2 74 3 0 3 -190 529 -216 599 l-26 67 -74 0 c-69 0 -75 -2 -84 -24z m160
-378 c0 -5 -36 -8 -81 -8 -73 0 -80 2 -74 18 3 9 23 64 42 121 l36 104 39
-114 c21 -63 38 -117 38 -121z"/>
<path d="M6280 1255 l0 -335 70 0 70 0 0 335 0 335 -70 0 -70 0 0 -335z"/>
<path d="M7549 1528 c-1 -89 -1 -461 0 -535 l1 -63 65 0 65 0 2 207 3 207 128
-207 129 -207 69 0 69 0 0 330 0 330 -65 0 -65 0 0 -205 c0 -113 -3 -205 -7
-205 -5 0 -20 21 -36 48 -15 26 -71 117 -125 202 l-98 155 -67 3 -67 3 -1 -63z"/>
<path d="M8512 1478 c-53 -147 -177 -485 -191 -520 l-11 -28 74 0 73 0 20 68
20 67 124 0 124 0 25 -72 25 -73 73 0 c65 0 73 2 68 18 -3 9 -57 159 -120 332
l-114 315 -74 3 -75 3 -41 -113z m114 -296 c-43 -2 -80 -1 -82 1 -2 2 15 58
38 125 l43 121 40 -122 40 -122 -79 -3z"/>
<path d="M9162 1258 l3 -333 213 -3 212 -2 0 65 0 65 -145 0 -145 0 0 270 0
270 -70 0 -70 0 2 -332z"/>
</g>
</svg>
