<?xml version="1.0" standalone="no"?>
<!DOCTYPE svg PUBLIC "-//W3C//DTD SVG 20010904//EN"
 "http://www.w3.org/TR/2001/REC-SVG-20010904/DTD/svg10.dtd">
<svg version="1.0" xmlns="http://www.w3.org/2000/svg"
 width="1024.000000pt" height="1024.000000pt" viewBox="0 0 1024.000000 1024.000000"
 preserveAspectRatio="xMidYMid meet">

<g transform="translate(0.000000,1024.000000) scale(0.100000,-0.100000)"
fill="#000000" stroke="none">
<path d="M2890 9361 c-38 -14 -66 -32 -92 -61 -74 -83 -68 110 -66 -2310 l3
-2175 22 -40 c29 -55 89 -110 143 -132 43 -17 138 -18 2215 -18 l2170 1 52 23
c58 26 116 83 141 140 16 33 17 210 17 2221 0 2042 -1 2187 -17 2221 -25 54
-65 97 -112 122 l-41 22 -2190 2 c-2126 2 -2192 2 -2245 -16z m4349 -180 c13
-3 34 -19 45 -34 l21 -28 0 -1702 0 -1702 -70 -24 c-74 -25 -186 -34 -204 -16
-7 7 10 97 54 280 36 149 65 280 65 292 0 13 -10 29 -22 37 -47 29 -511 180
-1343 436 -731 225 -761 233 -795 227 -15 -4 -86 -39 -156 -80 -71 -40 -203
-115 -294 -167 -188 -106 -200 -115 -200 -146 0 -12 46 -92 102 -176 149 -225
394 -626 386 -633 -12 -10 -162 -71 -203 -81 -60 -17 -156 -18 -224 -3 -27 6
-93 33 -146 60 -128 66 -225 97 -327 105 -132 10 -223 -12 -395 -98 -138 -68
-146 -71 -231 -76 -106 -6 -165 9 -294 74 l-88 44 2 1679 c3 1663 3 1679 23
1701 11 12 29 26 40 31 24 9 4219 10 4254 0z m-3239 -3617 c36 -8 126 -44 200
-79 147 -70 232 -95 325 -95 111 0 247 39 361 102 138 77 301 105 424 74 36
-9 121 -43 190 -76 152 -72 227 -92 345 -92 119 0 193 20 340 92 243 120 364
120 589 1 61 -33 135 -66 165 -75 68 -20 208 -21 282 -2 31 8 62 16 69 18 10
2 14 -25 16 -129 l2 -132 -37 -15 c-61 -24 -162 -38 -219 -31 -72 9 -135 32
-272 98 -145 70 -195 81 -346 75 -104 -4 -129 -9 -196 -36 -42 -17 -94 -42
-115 -55 -66 -42 -172 -78 -243 -84 -102 -9 -178 11 -330 82 -181 85 -231 99
-360 99 -133 0 -199 -17 -360 -94 -157 -75 -230 -94 -330 -87 -93 6 -150 26
-265 89 -144 79 -190 92 -330 93 -135 0 -185 -11 -290 -63 -38 -19 -91 -45
-116 -58 -157 -78 -328 -75 -496 8 l-83 41 0 124 c0 67 2 123 4 123 2 0 30
-13 62 -29 83 -40 176 -61 275 -61 116 0 182 19 334 95 191 97 268 112 405 79z
m31 -535 c19 -6 90 -37 159 -70 280 -132 420 -132 698 0 253 119 345 121 569
10 126 -61 187 -83 282 -99 135 -23 270 4 432 85 123 62 201 86 285 86 106 1
172 -16 288 -76 151 -78 229 -100 346 -98 68 0 111 7 153 21 31 12 57 19 57
16 0 -16 -33 -65 -49 -74 -13 -7 -705 -10 -2140 -10 l-2121 0 -30 28 c-23 19
-33 39 -37 70 -6 48 -3 50 41 23 56 -35 185 -72 269 -78 120 -8 206 14 363 92
72 35 157 71 190 80 64 16 186 13 245 -6z"/>
<path d="M5595 8951 c-96 -29 -111 -37 -244 -125 -69 -46 -261 -172 -426 -281
l-299 -197 -311 92 c-770 229 -879 260 -905 260 -39 0 -210 -126 -210 -154 0
-12 4 -26 8 -32 4 -6 79 -55 167 -109 88 -54 232 -144 320 -200 88 -56 202
-128 253 -160 76 -46 91 -60 80 -69 -7 -7 -93 -72 -190 -146 -144 -107 -182
-131 -200 -126 -133 36 -371 96 -384 96 -9 0 -37 -16 -60 -36 -32 -26 -44 -42
-44 -62 1 -24 20 -39 163 -130 89 -57 169 -108 177 -113 12 -7 4 -20 -42 -65
-63 -61 -69 -83 -43 -134 19 -36 36 -37 124 -10 36 11 66 18 66 17 1 -1 10
-67 19 -147 10 -80 22 -151 28 -157 16 -20 38 -16 95 17 58 33 56 28 109 239
l29 113 284 169 c156 93 285 168 286 167 2 -2 6 -68 9 -148 11 -253 28 -464
37 -482 6 -10 19 -18 31 -18 25 0 154 85 172 114 8 11 64 188 125 393 61 204
115 383 121 397 10 29 95 87 555 381 267 171 322 210 396 284 134 135 179 250
124 311 -9 10 -40 28 -68 41 -73 32 -264 37 -352 10z"/>
<path d="M5779 7641 c-21 -17 -23 -27 -24 -102 l0 -84 160 -6 c158 -6 453 -50
483 -72 9 -7 12 -97 12 -391 l0 -381 248 -83 c136 -45 251 -82 255 -82 4 0 7
155 7 344 0 271 -3 346 -13 354 -7 6 -60 13 -118 14 l-104 3 -5 233 c-5 231
-5 234 -29 253 -22 18 -45 19 -436 19 -389 0 -414 -1 -436 -19z"/>
<path d="M5365 7380 c-48 -9 -54 -35 -55 -245 l-2 -190 134 -42 c73 -22 261
-80 418 -128 157 -48 326 -99 375 -115 l90 -28 3 340 c1 188 0 343 -2 346 -3
2 -74 17 -158 32 -142 26 -177 29 -463 32 -171 2 -323 1 -340 -2z"/>
<path d="M5205 4280 c-188 -40 -300 -155 -341 -349 -23 -114 -16 -983 9 -1057
47 -140 154 -239 293 -270 106 -23 255 -16 346 18 163 61 241 183 255 401 l6
97 -151 0 -152 0 0 -83 c0 -137 -48 -192 -163 -184 -66 4 -103 26 -129 78 -16
31 -18 76 -18 507 0 523 0 519 63 564 47 34 132 37 177 6 53 -35 72 -84 74
-186 l2 -87 142 -3 c125 -2 143 0 149 14 10 25 -14 212 -36 282 -33 106 -115
192 -223 234 -59 23 -232 34 -303 18z"/>
<path d="M1107 4263 c-4 -3 -7 -301 -7 -662 0 -605 -1 -659 -18 -691 -37 -75
-145 -92 -206 -31 -29 29 -31 37 -36 124 l-5 92 -135 0 -135 0 3 -90 c4 -161
39 -254 120 -326 63 -55 138 -81 252 -86 207 -11 350 59 422 205 l33 67 3 702
3 703 -144 0 c-79 0 -147 -3 -150 -7z"/>
<path d="M8074 3965 c-34 -7 -76 -21 -94 -30 -59 -31 -126 -102 -156 -168
l-29 -62 0 -415 c0 -372 2 -420 18 -466 54 -154 193 -233 392 -221 50 3 107
10 127 17 54 16 128 69 165 118 56 74 64 120 61 376 l-3 228 -185 1 -185 2 -3
-97 -3 -98 66 0 65 0 0 -121 c0 -136 -11 -169 -64 -191 -72 -30 -153 -7 -183
53 -9 18 -13 120 -13 392 0 413 1 421 67 452 52 25 127 16 161 -19 24 -23 27
-36 30 -106 l4 -80 126 0 125 0 -6 99 c-6 113 -25 166 -83 230 -93 104 -237
142 -400 106z"/>
<path d="M3664 3950 c-151 -49 -234 -188 -221 -371 9 -142 72 -235 224 -335
46 -29 122 -79 169 -110 94 -62 123 -104 124 -175 0 -87 -51 -139 -140 -139
-91 0 -140 47 -140 135 l0 45 -131 0 -132 0 5 -77 c13 -219 170 -337 426 -320
111 7 187 35 252 94 80 72 103 126 108 255 8 195 -33 255 -287 423 -86 56
-164 111 -173 121 -27 30 -48 89 -48 133 0 85 40 121 134 121 43 0 61 -5 83
-24 25 -21 28 -31 31 -100 l4 -77 122 3 121 3 -1 80 c-2 156 -65 258 -189 305
-87 33 -256 38 -341 10z"/>
<path d="M9005 3961 c-104 -26 -198 -99 -242 -190 l-28 -56 0 -425 0 -425 27
-57 c60 -128 163 -196 313 -206 200 -12 345 63 418 218 21 43 22 60 25 440 3
340 1 403 -13 456 -29 110 -125 205 -238 239 -53 16 -207 19 -262 6z m204
-239 c47 -34 50 -62 50 -435 1 -371 -1 -390 -49 -432 -17 -16 -36 -20 -86 -20
-59 0 -66 3 -96 33 l-33 32 -3 384 -3 384 26 31 c45 53 139 64 194 23z"/>
<path d="M1825 3938 c-3 -7 -57 -245 -121 -528 -63 -283 -128 -573 -144 -645
-17 -71 -30 -133 -30 -137 0 -5 59 -8 130 -8 72 0 130 1 130 3 0 12 50 259 53
264 3 5 72 8 153 8 l147 0 26 -135 26 -135 133 -3 c82 -2 132 1 132 7 0 10
-111 511 -220 991 -28 124 -56 249 -62 278 l-11 52 -169 0 c-126 0 -170 -3
-173 -12z m219 -538 c25 -118 48 -234 52 -257 l7 -43 -107 0 c-58 0 -106 3
-106 6 0 12 91 489 97 509 8 26 5 37 57 -215z"/>
<path d="M2600 3285 l0 -665 345 0 345 0 0 110 0 110 -215 0 -215 0 2 173 3
172 170 0 170 0 3 108 3 107 -176 0 -175 0 0 165 0 165 210 0 210 0 0 110 0
110 -340 0 -340 0 0 -665z"/>
<path d="M6126 3898 c-12 -43 -258 -1132 -281 -1245 l-7 -33 130 0 130 0 23
125 c13 69 26 130 30 136 4 7 59 11 150 11 l144 0 25 -133 25 -134 133 -3 c90
-2 132 1 132 8 0 11 -119 550 -140 635 -13 51 -150 674 -150 680 0 3 -74 5
-165 5 l-164 0 -15 -52z m228 -538 c29 -138 50 -252 48 -255 -8 -8 -202 -6
-202 3 -1 19 94 511 98 507 2 -2 28 -117 56 -255z"/>
<path d="M6887 3944 c-4 -4 -7 -301 -7 -661 l0 -653 130 0 130 0 0 250 0 250
48 0 47 0 95 -250 95 -250 133 0 c72 0 132 4 132 9 0 4 -49 125 -110 267 -109
256 -110 259 -89 274 130 94 171 182 171 370 0 195 -52 297 -185 368 l-52 27
-265 3 c-146 2 -269 0 -273 -4z m442 -229 c86 -44 99 -276 19 -352 -27 -26
-36 -28 -119 -31 l-89 -4 0 201 0 201 80 0 c52 0 91 -5 109 -15z"/>
<path d="M6520 2074 c-72 -20 -118 -58 -155 -129 -27 -53 -30 -68 -30 -154 0
-113 14 -158 63 -213 49 -54 104 -80 183 -86 104 -7 163 11 225 72 61 60 84
121 84 227 0 125 -58 227 -154 270 -60 26 -150 32 -216 13z m173 -108 c43 -28
68 -89 69 -163 1 -90 -18 -147 -59 -183 -125 -110 -282 30 -244 219 13 64 33
96 82 129 28 20 42 23 81 18 26 -3 58 -12 71 -20z"/>
<path d="M5445 2064 c-53 -19 -102 -68 -131 -129 -20 -42 -24 -66 -24 -146 0
-119 18 -178 73 -230 84 -82 246 -92 349 -22 35 24 88 108 88 140 0 9 -16 13
-53 13 -51 0 -55 -2 -78 -37 -29 -46 -84 -67 -143 -57 -76 12 -116 80 -116
194 0 76 15 121 50 155 61 59 185 38 213 -36 11 -29 14 -30 67 -27 52 3 55 4
51 28 -9 68 -68 134 -140 159 -47 15 -157 13 -206 -5z"/>
<path d="M6010 1789 l0 -290 58 3 57 3 3 287 2 287 -60 0 -60 -1 0 -289z"/>
<path d="M7090 1790 l0 -290 60 0 60 0 2 188 3 187 116 -185 115 -185 62 -3
62 -3 0 290 0 290 -55 -1 -55 -2 -1 -195 c0 -132 -3 -191 -10 -181 -5 8 -60
96 -122 195 l-112 180 -63 2 -62 3 0 -290z"/>
<path d="M8530 2072 c-6 -2 -10 -110 -10 -288 l0 -284 190 0 190 0 0 50 0 49
-132 3 -133 3 -5 235 -5 235 -43 0 c-23 0 -47 -1 -52 -3z"/>
<path d="M1110 1785 l0 -285 60 0 60 0 0 285 0 285 -60 0 -60 0 0 -285z"/>
<path d="M1450 2063 c0 -5 -1 -132 -1 -283 l0 -275 56 -3 55 -3 2 192 3 192
115 -191 115 -192 63 0 62 0 0 285 0 286 -57 -3 -58 -3 2 -182 c1 -101 -2
-183 -5 -183 -4 0 -38 53 -76 118 -38 64 -89 147 -113 185 l-43 67 -60 0 c-33
0 -60 -3 -60 -7z"/>
<path d="M2099 2068 c0 -2 -2 -24 -5 -50 l-5 -47 83 -3 83 -3 3 -232 2 -233
55 0 55 0 2 233 3 232 78 3 77 3 0 49 0 50 -215 0 c-118 0 -215 -1 -216 -2z"/>
<path d="M2710 1785 l0 -285 205 0 205 0 0 50 0 50 -145 0 -145 0 0 70 0 70
118 0 c65 0 121 2 123 4 3 3 3 23 1 45 l-4 41 -119 0 -119 0 0 70 0 70 135 0
135 0 0 50 0 50 -195 0 -195 0 0 -285z"/>
<path d="M3310 1785 l0 -286 58 3 57 3 0 105 0 105 54 0 54 0 46 -105 47 -105
63 -3 c74 -4 73 -13 5 134 l-44 94 39 36 c50 44 68 109 51 175 -30 109 -72
129 -280 129 l-150 0 0 -285z m290 170 c15 -13 20 -31 20 -66 0 -67 -22 -81
-121 -77 l-74 3 -1 75 c-1 41 1 79 4 84 9 16 150 1 172 -19z"/>
<path d="M3940 1785 l0 -285 55 0 55 0 2 192 3 192 120 -192 120 -192 62 0 63
0 0 285 0 285 -60 0 -60 0 0 -187 c-1 -151 -3 -185 -13 -171 -7 10 -59 94
-117 188 l-105 169 -62 1 -63 0 0 -285z"/>
<path d="M4810 2066 c0 -3 -179 -506 -196 -551 -5 -12 4 -15 54 -15 l60 0 22
65 22 65 108 0 108 0 24 -65 23 -65 62 0 63 0 -29 79 c-16 43 -64 171 -106
285 l-78 206 -68 0 c-38 0 -69 -2 -69 -4z m108 -240 c18 -48 32 -92 32 -97 0
-5 -34 -9 -76 -9 -68 0 -75 2 -69 18 14 36 65 185 65 191 0 18 21 -26 48 -103z"/>
<path d="M7975 2061 c-3 -5 -36 -96 -74 -203 -38 -106 -81 -224 -95 -262 -36
-95 -36 -96 28 -96 l54 0 24 65 23 65 110 0 111 0 20 -62 20 -63 62 -3 c34 -2
62 -1 62 1 0 2 -39 109 -86 238 -47 129 -93 255 -102 282 l-16 47 -67 0 c-37
0 -70 -4 -74 -9z m105 -223 c18 -51 35 -99 38 -105 3 -10 -15 -13 -72 -13 -51
0 -76 4 -76 12 0 18 64 198 71 198 4 0 21 -42 39 -92z"/>
</g>
</svg>
