<!DOCTYPE svg PUBLIC "-//W3C//DTD SVG 1.1//EN" "http://www.w3.org/Graphics/SVG/1.1/DTD/svg11.dtd">
<!-- Uploaded to: SVG Repo, www.svgrepo.com, Transformed by: SVG Repo Mixer Tools -->
<svg fill="#ffffff" height="800px" width="800px" version="1.1" id="Capa_1" xmlns="http://www.w3.org/2000/svg" xmlns:xlink="http://www.w3.org/1999/xlink" viewBox="0 0 347.971 347.971" xml:space="preserve" stroke="#ffffff">
<g id="SVGRepo_bgCarrier" stroke-width="0"/>
<g id="SVGRepo_tracerCarrier" stroke-linecap="round" stroke-linejoin="round"/>
<g id="SVGRepo_iconCarrier"> <g> <path d="M317.308,54.367C257.945,54.367,212.46,37.403,173.997,0C135.522,37.403,90.034,54.367,30.663,54.367 c0,97.406-20.158,236.937,143.334,293.604C337.465,291.304,317.308,151.773,317.308,54.367z M62.886,85.378 c35.75-3.721,66.89-13.996,94.797-31.282v109.059H64.467C61.94,137.053,62.403,110.301,62.886,85.378z M236.384,274.832 c-12.451,12.023-27.895,22.469-46.086,31.234V195.779h88.215c-1.878,8.498-4.223,16.811-7.193,24.828 C263.426,242.02,251.99,259.762,236.384,274.832z"/> </g> </g>
</svg>