<?xml version="1.0" standalone="no"?>
<!DOCTYPE svg PUBLIC "-//W3C//DTD SVG 20010904//EN"
 "http://www.w3.org/TR/2001/REC-SVG-20010904/DTD/svg10.dtd">
<svg version="1.0" xmlns="http://www.w3.org/2000/svg"
 width="400" height="250" viewBox="330 420 400 550"
 preserveAspectRatio="xMidYMid meet">

<g transform="translate(0.000000,1605.000000) scale(0.100000,-0.100000)"
fill="#82181a" stroke="none">
<path d="M5125 11599 c-257 -19 -497 -72 -745 -167 -372 -142 -627 -300 -893
-552 -300 -286 -553 -686 -668 -1059 -65 -208 -113 -444 -130 -631 -13 -146
-7 -447 11 -564 31 -205 146 -593 206 -694 4 -7 273 -32 341 -32 l72 0 -69
149 c-92 198 -135 326 -170 501 -80 396 -49 857 80 1212 17 46 66 155 109 243
245 498 679 905 1178 1104 121 48 372 125 473 145 227 44 583 47 820 6 158
-28 472 -130 623 -204 222 -109 435 -264 627 -456 163 -163 222 -237 357 -455
149 -238 261 -552 300 -839 23 -172 22 -502 -2 -666 -9 -69 -17 -132 -17 -140
0 -8 19 -67 42 -130 44 -124 110 -366 110 -406 0 -53 20 -20 88 141 87 209
142 535 142 851 0 361 -51 652 -167 948 -210 535 -540 952 -986 1247 -178 118
-313 188 -518 270 -175 70 -238 90 -397 125 -225 49 -565 71 -817 53z"/>
<path d="M6119 10860 c-131 -20 -227 -66 -554 -268 -201 -124 -275 -161 -341
-168 -51 -6 -335 40 -699 113 -226 46 -289 48 -336 12 -19 -15 -41 -38 -48
-53 -24 -43 -33 -37 482 -308 97 -51 177 -97 177 -103 0 -10 -248 -201 -333
-257 -49 -33 -70 -34 -179 -8 -161 39 -257 21 -344 -64 -65 -62 -68 -82 -16
-95 20 -5 75 -19 121 -30 150 -37 231 -91 269 -179 11 -26 32 -96 47 -157 15
-60 34 -122 41 -137 20 -39 52 -36 96 10 42 44 57 72 88 167 59 180 96 213
416 373 l142 71 6 -52 c5 -46 46 -530 46 -549 0 -14 44 -8 87 11 53 24 126 92
147 135 28 58 46 147 67 321 32 278 70 400 140 459 18 15 64 43 103 63 90 45
135 75 273 185 131 104 293 270 322 331 23 48 27 97 10 129 -22 41 -128 63
-230 48z"/>
<path d="M5764 9349 c-110 -14 -104 27 -104 -718 l0 -630 38 -12 c21 -6 49 -9
62 -7 22 3 26 9 32 56 11 98 101 196 202 223 105 28 243 -13 307 -91 32 -39
69 -127 69 -165 l0 -25 220 0 220 0 0 31 c0 84 66 184 145 220 50 23 152 25
203 4 78 -33 147 -124 159 -210 l6 -45 149 0 c137 0 149 1 144 18 -2 9 -12 55
-21 102 -62 311 -223 700 -349 839 -36 40 -114 71 -181 71 l-61 0 -12 58 c-22
108 -104 199 -220 243 -49 18 -90 22 -277 30 -306 11 -670 15 -731 8z m1279
-472 c38 -16 98 -81 125 -134 22 -43 72 -196 72 -220 0 -13 -37 -15 -328 -12
-418 5 -404 -2 -406 200 -1 121 10 154 58 168 52 15 441 13 479 -2z"/>
<path d="M4172 8924 c-16 -11 -22 -25 -22 -55 0 -52 23 -73 107 -97 202 -58
361 -105 468 -137 204 -61 436 -117 460 -111 29 8 35 30 35 152 0 120 -19 196
-55 220 -21 14 -93 18 -472 30 -247 7 -459 13 -473 14 -14 0 -36 -7 -48 -16z"/>
<path d="M3585 8751 c-68 -18 -95 -48 -95 -107 0 -27 67 -186 199 -474 l80
-175 40 -3 c22 -2 131 16 243 39 408 83 663 63 1032 -81 84 -32 191 -70 237
-84 l84 -24 8 187 c4 102 6 224 3 271 -5 76 -8 87 -31 108 -14 12 -34 22 -44
22 -22 0 -1012 220 -1142 254 -209 54 -531 89 -614 67z"/>
<path d="M6009 8176 c-87 -31 -129 -87 -129 -173 0 -77 33 -132 99 -165 75
-38 139 -38 207 1 141 81 115 281 -44 335 -55 19 -85 19 -133 2z"/>
<path d="M7018 8170 c-96 -29 -152 -136 -117 -227 13 -34 55 -80 91 -99 61
-32 177 -5 212 49 8 12 20 43 26 68 22 90 -22 174 -107 203 -51 18 -65 18
-105 6z"/>
<path d="M4227 7909 c-38 -5 -139 -25 -225 -43 -359 -79 -471 -91 -779 -82
-128 3 -233 4 -233 1 0 -24 125 -225 189 -305 170 -211 357 -401 513 -519 373
-283 797 -466 1230 -532 174 -27 490 -36 669 -20 595 54 1116 286 1574 699
110 99 251 252 322 350 107 147 152 211 167 240 l17 32 -88 1 c-97 0 -147 5
-498 43 -274 30 -488 34 -636 12 -53 -9 -181 -38 -285 -65 -270 -72 -353 -84
-504 -78 -147 7 -208 21 -490 116 -420 141 -683 183 -943 150z m373 -309 c91
-19 181 -45 505 -143 83 -25 188 -56 234 -68 70 -18 81 -24 65 -33 -24 -14
-558 -14 -809 1 -281 16 -467 -3 -653 -67 l-82 -28 -112 97 c-61 53 -113 101
-115 107 -4 11 193 80 326 114 214 54 450 61 641 20z m2493 -55 c9 -4 17 -12
17 -17 0 -17 -128 -138 -246 -234 -111 -91 -345 -244 -461 -303 -225 -113
-542 -211 -783 -241 -109 -13 -416 -13 -517 0 -303 41 -665 166 -875 303 -46
30 -91 59 -102 64 -54 29 128 23 424 -14 167 -21 534 -24 665 -5 230 33 519
108 650 167 107 49 425 175 542 214 104 35 210 61 308 75 47 7 358 0 378 -9z"/>
</g>
</svg>
